<?xml version="1.0" encoding="UTF-8"?>
<svg version="1.1" xmlns="http://www.w3.org/2000/svg" width="240" height="240">
<path d="M0 0 C79.2 0 158.4 0 240 0 C240 79.2 240 158.4 240 240 C160.8 240 81.6 240 0 240 C0 160.8 0 81.6 0 0 Z " fill="#79005C" transform="translate(0,0)"/>
<path d="M0 0 C3.68641545 -0.23397242 7.37091156 -0.37493711 11.0625 -0.5 C12.62000977 -0.60054688 12.62000977 -0.60054688 14.20898438 -0.703125 C21.81145942 -0.89620373 21.81145942 -0.89620373 25.22241211 1.67578125 C32.51727159 9.88333092 35.01928858 18.07680763 34.5234375 28.9765625 C33.74998273 37.22543804 29.15362246 43.78204247 24 50 C24.48210937 50.51949219 24.96421875 51.03898437 25.4609375 51.57421875 C26.09257813 52.27160156 26.72421875 52.96898437 27.375 53.6875 C28.00148438 54.37199219 28.62796875 55.05648437 29.2734375 55.76171875 C32.64757249 60.13588017 33.24699451 63.94207889 33.1953125 69.39453125 C33.18886719 70.59658203 33.18242188 71.79863281 33.17578125 73.03710938 C33.15902344 74.28298828 33.14226562 75.52886719 33.125 76.8125 C33.11597656 78.07771484 33.10695312 79.34292969 33.09765625 80.64648438 C33.07412478 83.76440405 33.03825489 86.88222622 33 90 C26.4 90 19.8 90 13 90 C12.97421875 88.2159375 12.9484375 86.431875 12.921875 84.59375 C12.86557483 82.22914285 12.80822793 79.86456046 12.75 77.5 C12.73582031 76.32695312 12.72164062 75.15390625 12.70703125 73.9453125 C12.48754203 66.1314964 11.94568201 59.84944587 6.078125 54.125 C5.47484375 53.75375 4.8715625 53.3825 4.25 53 C3.1775 52.34 2.105 51.68 1 51 C2.39505937 47.86285157 4.06674586 45.71762366 6.4375 43.25 C12.30545988 36.59964547 13.56131246 30.71119362 13.2734375 21.88671875 C12.35494827 12.19009678 6.67033217 6.67033217 0 0 Z " fill="#FCFBFC" transform="translate(60,75)"/>
<path d="M0 0 C3.68641545 -0.23397242 7.37091156 -0.37493711 11.0625 -0.5 C12.62000977 -0.60054688 12.62000977 -0.60054688 14.20898438 -0.703125 C21.7961895 -0.89581592 21.7961895 -0.89581592 25.22241211 1.65380859 C32.38927482 9.65189648 34.72929554 17.9529837 34.3828125 28.6015625 C33.4172535 37.17336176 29.45250115 43.49334863 24 50 C24.72316406 50.76183594 24.72316406 50.76183594 25.4609375 51.5390625 C26.09257812 52.22742188 26.72421875 52.91578125 27.375 53.625 C28.31472656 54.63433594 28.31472656 54.63433594 29.2734375 55.6640625 C32.62177391 60.19416471 33.25003119 64.74685023 33.1953125 70.2734375 C33.18886719 71.42714844 33.18242187 72.58085937 33.17578125 73.76953125 C33.15902344 74.95933594 33.14226562 76.14914063 33.125 77.375 C33.11597656 78.58800781 33.10695312 79.80101562 33.09765625 81.05078125 C33.07416682 84.03393929 33.03829821 87.01699532 33 90 C26.4 90 19.8 90 13 90 C12.97421875 88.2159375 12.9484375 86.431875 12.921875 84.59375 C12.86557483 82.22914285 12.80822793 79.86456046 12.75 77.5 C12.73582031 76.32695312 12.72164062 75.15390625 12.70703125 73.9453125 C12.48170062 65.92354204 11.7640358 59.68161166 5.859375 53.90625 C5.16328125 53.4421875 4.4671875 52.978125 3.75 52.5 C3.04359375 52.0153125 2.3371875 51.530625 1.609375 51.03125 C1.07828125 50.6909375 0.5471875 50.350625 0 50 C0.70125 49.34 1.4025 48.68 2.125 48 C9.24550117 40.81863985 12.92523101 34.47228517 13.4375 24.1875 C13.28095022 16.82045161 11.09420491 11.13424083 5.88671875 5.859375 C4.47959931 4.62970757 3.04371185 3.43175145 1.57421875 2.27734375 C1.05472656 1.85582031 0.53523438 1.43429688 0 1 C0 0.67 0 0.34 0 0 Z " fill="#FCFBFC" transform="translate(103,75)"/>
<path d="M0 0 C3.56206722 -0.14567407 7.12336551 -0.23419196 10.6875 -0.3125 C12.19860352 -0.3753418 12.19860352 -0.3753418 13.74023438 -0.43945312 C21.25695537 -0.56349143 21.25695537 -0.56349143 25.0390625 2.3046875 C26.00972656 3.63886719 26.00972656 3.63886719 27 5 C27.49886719 5.59683594 27.99773437 6.19367188 28.51171875 6.80859375 C28.89972656 7.34613281 29.28773438 7.88367188 29.6875 8.4375 C30.08324219 8.97246094 30.47898438 9.50742188 30.88671875 10.05859375 C35.00605775 17.24214282 35.22971304 25.81605998 33.34765625 33.75 C31.06249348 40.02684195 27.32712257 44.96789679 23 50 C23.47050781 50.32871094 23.94101563 50.65742187 24.42578125 50.99609375 C25.35970703 51.70958984 25.35970703 51.70958984 26.3125 52.4375 C26.92738281 52.88996094 27.54226562 53.34242188 28.17578125 53.80859375 C33.92879758 60.71960481 33.37932841 69.53843227 33.1875 78.0625 C33.16719727 79.79016602 33.16719727 79.79016602 33.14648438 81.55273438 C33.11143093 84.36869475 33.05763525 87.18441129 33 90 C26.4 90 19.8 90 13 90 C12.96261719 88.3603125 12.92523438 86.720625 12.88671875 85.03125 C12.82103023 82.85414489 12.7545839 80.67706256 12.6875 78.5 C12.66494141 77.42234375 12.64238281 76.3446875 12.61914062 75.234375 C12.36267951 67.58717074 11.82973194 61.19251809 6.5625 55.25 C5.716875 54.5075 4.87125 53.765 4 53 C2.66666667 51.66666667 1.33333333 50.33333333 0 49 C1.03125 48.2575 2.0625 47.515 3.125 46.75 C8.89367015 41.73325427 12.30566834 35.21062554 13.546875 27.68359375 C13.8667704 20.15716582 12.50125165 14.10502302 8 8 C5.95110103 5.92837756 3.8645477 4.07658553 1.57421875 2.27734375 C1.05472656 1.85582031 0.53523437 1.43429688 0 1 C0 0.67 0 0.34 0 0 Z " fill="#FCFBFC" transform="translate(146,75)"/>
</svg>
